<svg xmlns="http://www.w3.org/2000/svg" viewBox="0 0 1200 630" fill="none">
  <rect width="1200" height="630" fill="#f5f1ea"/>
  <circle cx="181" cy="120" r="160" fill="#ff7a00" fill-opacity="0.08"/>
  <circle cx="1068" cy="512" r="196" fill="#111111" fill-opacity="0.05"/>
  <rect x="120" y="120" width="960" height="390" rx="40" fill="#fffaf6" stroke="#e8ddd2" stroke-width="2"/>
  <g transform="translate(180 196)">
    <rect x="0" y="20" width="144" height="100" rx="22" fill="#ffffff" stroke="#111111" stroke-width="8"/>
    <path d="M8 34L45 68L72 49L99 68L136 34" stroke="#111111" stroke-width="8" stroke-linecap="square" stroke-linejoin="miter"/>
    <path d="M45 68L72 49L99 68" stroke="#ff7a00" stroke-width="8" stroke-linecap="square" stroke-linejoin="miter"/>
    <path d="M8 106L52 69" stroke="#111111" stroke-width="8" stroke-linecap="square" stroke-linejoin="miter"/>
    <path d="M136 106L92 69" stroke="#111111" stroke-width="8" stroke-linecap="square" stroke-linejoin="miter"/>
    <circle cx="72" cy="90" r="24" fill="#ff7a00" stroke="#111111" stroke-width="6.5"/>
    <path d="M57 100V76L72 93.5L87 76V100" stroke="#111111" stroke-width="4.9" stroke-linecap="round" stroke-linejoin="round"/>
  </g>
  <text x="360" y="285" fill="#111111" font-family="'Segoe UI', 'Helvetica Neue', Arial, sans-serif" font-size="94" font-weight="700" letter-spacing="-4">We</text>
  <text x="495" y="285" fill="#ff7a00" font-family="'Segoe UI', 'Helvetica Neue', Arial, sans-serif" font-size="94" font-weight="700" letter-spacing="-4">Mail</text>
  <text x="364" y="330" fill="#7c6e64" font-family="'Segoe UI', 'Helvetica Neue', Arial, sans-serif" font-size="18" font-weight="600" letter-spacing="5">EDGE MAIL OPERATIONS</text>
  <text x="188" y="414" fill="#111111" font-family="'Segoe UI', 'Helvetica Neue', Arial, sans-serif" font-size="34" font-weight="600" letter-spacing="-1.2">Temporary inboxes, outbound control, and admin oversight in one operator-friendly workspace.</text>
</svg>
